<?xml version="1.0" encoding="UTF-8"?>
<svg id="Layer_1" data-name="Layer 1" xmlns="http://www.w3.org/2000/svg" viewBox="0 0 1056 283">
  <defs>
    <style>
      .cls-1 {
        fill: #1c1b1c;
      }

      .cls-2 {
        fill: #f8f9eb;
      }

      .cls-3 {
        fill: #ebda8c;
      }

      .cls-4 {
        fill: #e5292d;
      }

      .cls-5 {
        fill: #548851;
      }

      .cls-6 {
        fill: #5d5c5e;
      }

      .cls-7 {
        fill: #e7a439;
      }
    </style>
  </defs>
  <path class="cls-1" d="M234.08,63.36c7.35-9.71,13.11-16.97,22.03-25.42,51.43-48.72,133.64-41.45,176.75,14.4,2.8,3.63,5.66,7.61,8.74,10.99,4.29-4.92,8.32-11.39,13.08-16.56,14.22-15.47,31.27-27.52,51.02-34.62,29.17-10.28,61.21-8.73,89.25,4.33,26.36,12.68,47.68,33.87,60.52,60.14,3.58,7.24,6.23,14.66,8.96,22.24,8.27,24.61,7.75,53.52,1.78,78.59-2.27,6.35-3.68,12.35-6.27,18.81-9.04,22.39-23.89,41.95-43.03,56.67-52.48,39.86-123.36,30.26-164.87-20.47-3.7-4.52-7.14-9.21-10.66-13.86-9.47,13.67-18.16,24.13-31.53,34.29-26.13,19.84-56.55,27.91-89.04,23.39-26.84-3.73-52.2-17.72-70.65-37.44-5.76-6.16-10.8-13.29-15.9-20.04-2.74,3.13-6.34,8.34-9.1,11.82-5.77,7.35-12.38,14.01-19.68,19.84-53.7,43.48-126.7,33.25-169.55-19.93C12.63,201.07,1.86,163.63,5.93,126.3,10.05,87.95,26.74,55.48,56.86,31.26,81.62,11.65,113.12,2.61,144.51,6.12c32.8,3.62,63.73,22.84,83.27,49.14,2.04,2.75,4.15,5.44,6.29,8.1ZM447.84,74.75c4.33,9.91,8.37,19.16,11,29.72,8.91,35.83,4.62,70.09-11.15,103.25,14.73,25.86,39.82,46.91,68.72,54.86,9.5,2.54,19.28,3.83,29.12,3.82,2.74-.03,6.37-.6,8.5-.59,12.38-.57,26.39-4.58,37.61-10.16,103.55-51.56,86.4-217.15-30.45-237.85-5.46-.97-17.56-1.91-23.2-1-38.16,4.15-71.58,23.47-90.16,57.96ZM134.56,266.4c7.8-.75,14.41-1.39,22.11-3.25,22.11-5.35,44.39-20.12,58.83-37.63,4.52-5.56,8.66-11.42,12.38-17.54-3.57-8.2-6.57-14.92-9.2-23.5-9.8-32.04-8.44-66.46,3.86-97.63,1.6-4.07,3.45-8.2,5.22-12.2-16.12-27.33-39.72-46.24-70.65-54.85-6.8-1.89-26.6-4.42-33.21-3.01C11.1,28.85-20.78,172.37,61.7,241.48c18.92,15.85,47.89,26.79,72.86,24.93ZM234.01,88.14c-13.9,26.08-14.39,66.99-5.03,94.42,1.09,3.19,2.85,9.5,5.47,11.65,13.56-29.55,14.69-66.03,3.85-96.81-1.03-2.91-2.6-6.69-4.29-9.26ZM240.4,74.96c3.57,7.79,6.8,14.94,9.33,23.2,9.21,30.7,8.28,63.54-2.65,93.67-2.04,5.49-4.39,10.72-6.76,16.06,7.81,12.96,15.17,22.18,26.8,32.07,20.87,17.76,51.46,29.45,79.12,25.89,28.29-1.43,56.17-16.91,74.52-37.91,4.75-5.43,11.41-13.79,14.45-20.36-3.92-8.92-7.31-16.64-9.97-26.07-8.27-29.37-7.22-64.48,4.03-92.82,1.84-4.63,3.86-9.1,5.93-13.64-17.37-35.49-65.36-63.02-104.95-58.27-31.97,3.38-58.44,16.71-78.87,41.96-4.13,5.06-7.8,10.48-10.97,16.19ZM441.42,88.07c-12.84,22.84-14.34,65.4-6.33,90.12,1.25,3.86,3.64,13.17,6.63,15.98,13.62-26.31,14.26-65.46,5.33-93.21-.85-2.64-3.95-10.86-5.63-12.9Z"/>
  <path class="cls-4" d="M483.11,70.72l28.9.02c17.13-.05,34.16-1.57,48.67,9.51,14.19,10.83,17.95,22.06,20.42,38.62,1.15.69,2.24,1.22,3.43,1.82,14.6,7.42,29.64,14.24,44.02,22.07-11.68,7.06-27.43,9.99-37.98,18.11-16.57,12.77-2.3,32.82-19,46.34-4.79,3.32-9.53,4.74-15.25,4.46-20.64-1-29.2-27.22-13.68-40.46,10.28-8.78,24.55-2.97,35.01-11.36,3.47-2.78,7.5-7.5,8.03-12.22.94-28-44.06-26.86-61.55-28.41-22.6-2.01-43.95-26.41-41.04-48.5Z"/>
  <path class="cls-4" d="M556.35,124.42c8.67,1.39,13.61,10.71,2.38,13.57-9.78-1.57-14.66-11.25-2.38-13.57Z"/>
  <path class="cls-6" d="M110.93,69.39c7.91-.35,22.98.33,31.53.37-.66,5.23-2.44,13.63-3.79,18.8-6.44.23-13.92.09-20.44.12-1.01,7.19-3.98,19.47-5.56,26.87l-9.04,43.37c6.33-.34,13.6-.14,20.01-.11l-1.97,10.1c-.57,3.17-1.35,6.08-2.16,9.19-6.76-.3-33.31,1.83-38.32-1.19-1.87-1.13,5.19-29.42,6.22-34.25,3.14-15.41,6.36-30.81,9.66-46.19,1.26-5.93,2.62-12.23,3.57-18.2,1.37-8.53,2.41-8.41,10.29-8.88Z"/>
  <path class="cls-6" d="M145.74,123.53c5.7-.33,9.43-.22,15.04.6.04,1.64.09,4.11-.23,5.68-5.37,26.27-11.42,52.41-16.5,78.74-.82,3.69-1.83,5.02-5.83,4.91-3.33-.1-12.17,1.08-14.54-1.02l.1-1.64c4.55-22.45,10.03-45.74,14.15-68.14-5.38-.39-14.63-.11-20.21-.07,1.49-5.09,2.67-13.19,4.02-18.85,7.95.01,16.09.11,24.02-.22Z"/>
  <path class="cls-2" d="M335.38,63.92l4.88.05c4.93,1.78,21.57,13.29,14.89,19.32,1.48.45,5.47,1.58,6.68,2.15,2.14,2.79,9.39,19.5,8.22,22.44.8,1.13,1.62,2.36,2.56,3.37l-1.68,1.87c.54,3.91,1.29,6.92,2.71,10.63-.85,4.67.34,13.72-1.21,16.85-.48,2.22-1.39,5.9-1.53,8.04.05,2.66-.38,7.35.22,9.43,5.01-.79,20.62-.68,24.92,1.83,1.6,2.38.6,9.28.04,12.16-3.09,15.28-12.09,28.71-25.05,37.38-6.1,4.08-24.58,12.03-31.46,9.88l-2.17.09c-1.57.46-7.63-.25-9.51-.62-53.23-10.38-67.41-76.24-23.39-107.92.26-.37,1.16-2.61,1.4-3.17-.91-5.11,4.77-16.94,7.51-21.36,1.83-1.71,3.48-3.19,5.05-5.16-.43-6.5,11.31-15.14,16.93-17.27ZM330.67,198.39c-1.43-3-5.45-5.11-7.79-8.27-9.71-13.1-15.35-25.26-19.18-41.02-.56-2.28-.7-4.55-.9-6.88-.98-2.1-.91-14.24-.92-17.26-2.41.86-5.68,4.87-7.01,7-8.23,13.28-10.73,30.33-5.42,45.16,4.6,12.91,14.13,23.47,26.5,29.38,6.28,2.95,9.17,2.98,15.46,4.34,1.31-2.44.39-9.96-.74-12.45ZM344.3,210.81c8.98-2.69,14.39-2.39,23.16-8.83,11.99-8.8,18.42-19.83,20.98-34.23-4.8-.47-9.64-.2-14.13-1.09-1.16-.23-2.02-1.97-2.59-3.01l-2.18-.98c-3.14,1.34-8.78,18.47-13.11,22.1.51-.43-10.73,12.98-10.24,11.96-2.29,4.45-4.36,9.08-1.88,14.09Z"/>
  <path class="cls-5" d="M337.39,219.4c-1.57.46-7.63-.25-9.51-.62-53.23-10.38-67.41-76.24-23.39-107.92l.14,3.37c-.33,1.61-2.85,10.48-2.75,10.72-2.41.86-5.68,4.87-7.01,7-8.23,13.28-10.73,30.33-5.42,45.16,4.6,12.91,14.13,23.47,26.5,29.38,6.28,2.95,9.17,2.98,15.46,4.34,2.7,1.21,1.89.09,3.9,2.14-.24,2.54-.38,3.67-.05,6.18l2.13.23Z"/>
  <path class="cls-7" d="M304.64,114.24c2.71.75,4.69,2.04,7.12,3.37,7.09,3.88,15.15,8.49,23.02,10.57.72,5.68.44,20.66.43,27.15-3.69-.94-5.42-1.56-8.69-2.87-3.69-1.48-20.91-11.36-23.33-10.75l-.37.51c-.98-2.1-.91-14.24-.92-17.26-.1-.25,2.43-9.11,2.75-10.72Z"/>
  <path class="cls-7" d="M370.92,113.12c.54,3.91,1.29,6.92,2.71,10.63-.85,4.67.34,13.72-1.21,16.85-8.51,4.5-22.81,12.91-31.74,14.43-.22-9.01-.03-18.33-.09-27.4,7.02-1.55,25.39-9.81,30.35-14.5Z"/>
  <path class="cls-5" d="M371.11,158.07c5.01-.79,20.62-.68,24.92,1.83,1.6,2.38.6,9.28.04,12.16-3.09,15.28-12.09,28.71-25.05,37.38-6.1,4.08-24.58,12.03-31.46,9.88l.79-.35c.35-1.29.07-5.69.02-7.27l3.93-.89c8.98-2.69,14.39-2.39,23.16-8.83,11.99-8.8,18.42-19.83,20.98-34.23-4.8-.47-9.64-.2-14.13-1.09-1.16-.23-2.02-1.97-2.59-3.01-.61-2.12-1.18-3.44-.6-5.57Z"/>
  <path class="cls-7" d="M340.17,162.17c3.08-1.51,7.87-2.77,11.55-4.57,5.12-2.52,10.09-5.12,15.2-7.65,1.81-.9,3.04-.46,3.98-1.31.05,2.66-.38,7.35.22,9.43-.58,2.13-.01,3.45.6,5.57l-2.18-.98c-3.14,1.34-8.78,18.47-13.11,22.1.51-.43-10.73,12.98-10.24,11.96l-5.3,1.28c-.26-6.5-.05-13.14-.27-19.73.01-5.14-.35-10.87-.45-16.1Z"/>
  <path class="cls-7" d="M303.7,149.1c8.74.03,18.88,10.54,31.45,12.49-.51,6.9.49,31.97-.54,36.15-1.63.54-2.29.55-3.95.65-1.43-3-5.45-5.11-7.79-8.27-9.71-13.1-15.35-25.26-19.18-41.02Z"/>
  <path class="cls-7" d="M361.83,85.45c2.14,2.79,9.39,19.5,8.22,22.44-2.47.99-8.37,4.57-10.96,6.02-6.7,3.75-11.08,5.28-18.41,7.22-.29-8.91-.26-17.83.08-26.74,8.83-2.8,12.84-4.82,21.08-8.94Z"/>
  <path class="cls-7" d="M313.4,86.34c3.13.36,15.16,6.38,21.71,8.19-.24,8.91.2,17.78-.03,26.66-9.41-2.11-21.43-7.89-29.2-13.5-.91-5.11,4.77-16.94,7.51-21.36Z"/>
  <path class="cls-7" d="M318.45,81.18c-.43-6.5,11.31-15.14,16.93-17.27-.12,7.84-.13,16.06-.44,23.86-7.71-1.36-9.78-2.26-16.48-6.59Z"/>
  <path class="cls-7" d="M340.26,63.97c4.93,1.78,21.57,13.29,14.89,19.32-2.55.39-7.25,3.45-14.72,4.36-.27-7.92.5-15.71-.17-23.69Z"/>
  <path class="cls-3" d="M335.16,161.59c.93,8.81.12,23.34.43,32.49.14,3.98.19,21.62-.33,25.1-.33-2.51-.19-3.64.05-6.18-2.01-2.05-1.2-.93-3.9-2.14,1.31-2.44.39-9.96-.74-12.45,1.66-.1,2.32-.11,3.95-.65,1.03-4.18.03-29.25.54-36.15Z"/>
  <path class="cls-3" d="M340.35,218.96c-.43-7.05-.5-34.29.26-40.7.22,6.59.01,13.23.27,19.73l5.3-1.28c-2.29,4.45-4.36,9.08-1.88,14.09l-3.93.89c.05,1.58.33,5.98-.02,7.27Z"/>
  <path class="cls-5" d="M372.61,111.25c13.84,12.54,18.77,19.05,23.68,37.35l-8.17.02c-3.93-11.05-5.73-16.58-14.48-24.88-1.42-3.71-2.17-6.72-2.71-10.63l1.68-1.87Z"/>
  <path class="cls-1" d="M675.04,45.71c10.01.11,20.02.14,30.02.09,4.69,0,15.99-.31,20.19.82.26,1.02-3.45,16.82-3.99,18.54-6.35-.45-21.96-.19-28.99.07l-11.58,57.48c-1.37,7.11-4.64,27.16-7.05,32.94,9.74.12,19.49.14,29.23.06-1.2,6.7-2.54,14.71-4.43,21.19-11.1-.24-21.67.8-32.24.54,5.97-25.07,6.49-53.98-1.78-78.59-.19-5.41,8.77-45.88,10.61-53.15Z"/>
  <path class="cls-4" d="M977.35,126.92c5.64-.28,10.88.16,15.07,3.87,14.8,13.12,1.95,45.7-17.06,47.19-6.78.53-11.1-2.63-15.58-6.44-1.23,6.33-2.34,12.57-3.65,18.9-.56,2.23-.93,5.19-1.28,7.52-4.71-.08-9.94-.29-14.59.03,1.78-5.72,3-13.55,4.15-19.54,1.85-9.24,3.62-18.48,5.34-27.74,1.33-7.44,2.57-16.07,4.27-23.3,3.61.12,7.61-.35,11.12.36,1.39,1.07.82,1.8,1.2,4.28.35-.02,8.78-4.39,11.01-5.13ZM973.49,165.58c9.72-.31,16.88-27.19,1.07-27.24-4.13.97-6.2,2.49-8.45,6.15-3.48,5.68-5.61,16.15.74,20.72,1,.72,5.39.42,6.65.37Z"/>
  <path class="cls-1" d="M697.43,113.75c14.98.02,31.58.37,46.43-.17l-17.25,86.11c-7.62-.02-15.24.01-22.86.11.92-7.12,5.25-24.63,7.04-32.02,2.68-11.34,5.19-22.73,7.52-34.15-8.54.12-16.96-.03-25.54.22.39-2.85,3.31-18.82,4.67-20.1Z"/>
  <path class="cls-4" d="M1024.98,110.23l.64.32c-.09,5.57-2.26,14.53-2.75,21.18,21.25-12.36,31.36-2.12,27.06,20.05-1.59,8.19-3.17,17.37-4.44,25.62-5.82.36-8.66.46-14.32-.78,2.16-11.88,4.77-22.42,4.47-34.49-1.44-2.36-3.46-2.83-6-3.87-9.77,3.93-10.31,9.33-11.99,19.02-1.18,6.76-2.23,13.87-3.83,20.55-3.53-.46-10.42.31-13.38-1.14-.54-2.01,9.87-58.97,11.65-65.77,4.56-.09,8.37-.14,12.89-.68Z"/>
  <path class="cls-4" d="M918.47,127.03c7.37-.91,13.91-.05,20.56,3.26,5.36,7.35,2.39,16.08,1.05,24.39-1.23,7.6-2.33,15.08-3.43,22.69-4.43.24-7.73.15-12.18-.04-.31-1.53-.44-3.95-.57-5.58-8.79,6.37-14.11,8.95-24.67,4.33-1.69-1.19-3.06-2.81-4.46-4.35-4.83-20.65,17.17-26.68,33.2-26.21.01-2.16.12-3.69-.52-5.76-3.84-5.05-18.75-.79-23.63,1.68.05-12.73,2.83-11.89,14.65-14.42ZM914.19,167.68c3.57-.72,4.65-1.13,7.96-2.52,1.6-2.74,3.41-5.33,3.35-8.53-1.21-2.1-3.16-2.31-5.51-1.79-4.32.91-4.83.79-8.59,3.29-6.01,3.99-3.72,10.43,2.79,9.56Z"/>
  <path class="cls-1" d="M826.57,213.14c1.52-.16,5-.41,6.23.41,3.25,2.16-8.35,28.87-7.17,33.77.14.61.58.71,1.09,1.01.16-.03.32-.07.48-.12,4.79-1.35,6.54-7.98,8.66-11.69,3.67-6.4,11.03-12.4,18.43-7.87.9.55,1.69.99,1.93,2.11,2.57,11.79-12.91,9.16-15.48,13.03-.09,2.06,2.27,5.4,3.96,5.74,3.6.72,9.94-4.09,13.3-5.6-4.02,6.37-10.66,11.13-18.78,8.62-3.62-1.12-4.53-3.57-6-6.78-2.02,2.52-3.72,4.49-5.92,6.86-6.33.36-8.5,1.2-9.37-5.79-6.23,6.12-14.01,10.45-17.23-1.58-6.85,6.6-7.82,7.73-17.71,7.94-5.82-1.41-3.87-.75-6.73-4.62-5.5.77-10.16,8.36-17.69,2.83-14.15-10.37,12.57-34.38,19.4-19.39,3.75,8.23-13.17,8.99-15.65,12.52-.11,1.2.19,2.24.88,3.2,3.76,5.18,11.15-1.09,14.39-3.24,3.27,3.4,5.87,6.48,10.8,4.29,4.17-5.23-7.69-14.95-3.59-19.56,9.16-10.3,8.94,12.92,11.9,15.72,6.68-2.25,7.25-21.38,25.1-16.94,1.66-4.06,2.97-11.82,4.78-14.91ZM812.2,248.58c4.08-2.91,9.66-11.97,7.86-17.04-1.66-1.1-1.56-.78-3.74-.94-1.99,1.49-2.66,2.15-4.17,4.08-2.18,2.78-7.4,14.27.05,13.9ZM766.41,240.25c3.1-1.57,5.75-3.9,5.65-7.69-.94-1.61-1.53-2.08-3.58-2.11-2.27,1.83-4.84,5.4-5.39,8.27l.31,1.42c1.05.61,1.79.34,3.01.12ZM844.5,240.03c3.35-1.49,7.69-4.5,5.85-8.7-1.07-.9-1.25-1-2.63-1.04-1.95,1.84-6.66,6.76-5.69,9.7,1.09.31,1.35.23,2.47.04Z"/>
  <path class="cls-4" d="M751.91,127.6c4.59-.1,9.28-.08,13.88-.12-.73,11.44-14.36,48.1,9.26,35.25,5.3-8.82,6.76-24.4,8.94-35.26h13.8c-.14,5.9-1.55,12.44-2.5,18.37-1.65,10.27-4.57,20.86-6.2,31.55-4.18.16-9.58,1.42-12.49-1.07-1.15-1.59-.86-3.96-.82-5.99-12.36,10.93-31.86,12.67-30.48-8.86.24-3.76,5.44-32.78,6.62-33.88Z"/>
  <path class="cls-4" d="M874.77,126.96c1.32-.1,2.65-.17,3.98-.2,6.1-.1,8.74,1.63,12.83,5.59.3,1.26,1.22,5.16,1.09,6.2-1.06,8.79-4.25,31.67-6.83,39.04-5.19.12-9.12.18-14.2-.97,1.47-7.81,7.92-29.92,2.94-37.3-2.55-3.77-9.32,2.01-11.82,4.48-4.16,8.16-5.51,23.98-7.65,33.91-3.53-.36-10.48.54-13.45-.95-1.35-3.73,7.18-40.87,7.64-49,4.41-.27,8.74-.25,13.15-.27-.13,1.83-.16,3.93-.23,5.79,5.04-3.57,6.56-4.66,12.53-6.32Z"/>
  <path class="cls-1" d="M717.54,212.68c9.87-.25,31.06-1.87,35.22,10.16,4.5,12.63-8.45,27.1-20.49,28.59-6.79.84-30.08,3.06-32.77-4.58l.53-.92c.46-.12,7.59,2.26,8.7,2.54,1.82.18,5.13.51,6.41-.69,6-5.59,9.91-24.97,11.23-32.05-9.16-.26-13.06.26-16.79,9.06,2.64,8.46.91,4.16,7.17,6.58.63,2.21-.69,5.22-2.95,5.42-11.16.99-16.37-12.95-7.11-19.54,4.13-2.94,6.29-3.42,10.84-4.57ZM721.92,249.09c4.22-.29,7.12-.08,10.86-2.02,1.32-.8,3.01-1.83,4.23-2.95,6.33-5.78,13.73-23.5,1.57-27.28-1.12-.35-3.55-.3-4.81-.24.36,6.71-4.87,24.83-9.75,30.26-.69.76-1.39,1.51-2.11,2.24Z"/>
  <path class="cls-4" d="M819.92,126.97c8.03-.69,13.82-.33,21,3.39-.63,3.09-1.21,6.26-2.25,9.24-2.33.68-23.76-7.83-21.91,3.27,3.11,4.71,20.33,4.34,21.34,13.68,1.38,12.72-6.19,18.94-17.64,21.24-6.03.19-10.81.26-16.75-1.02-7.85-1.69-4.75-6.79-3.06-12.83,6.83,2.58,15.01,6.22,21.91.98,1.14-.87,1.04-1.65,1.05-2.89-1.38-2.55-4.7-3.5-7.27-4.35-11.63-3.87-18.44-9.63-11.03-21.95,3.49-5.81,8.34-7.22,14.61-8.77Z"/>
  <path class="cls-1" d="M759.34,45.63c7.34-.26,19.55.3,22,9.77.34,1.33.03,1.69-.71,2.67-3.84,1.32-11.52-2.6-16.6-3.24-16.28-2.04-18.88,22.27-7.16,28.74,2.5,1.38,11.01,2.13,13.3-.06,1.38-1.32,1.01-6.64,1.04-8.69l-9.3-.1c-.06-2.26-.18-4.33.21-6.58,1.05-1.44.5-1.05,2.28-1.51,5.65-.07,11.4,0,17.05,0l.06,22.28c-13.71,8.47-36.93,6.77-41.53-11.53-4.14-16.51,3.35-27.54,19.35-31.75Z"/>
  <path class="cls-1" d="M870.39,59.5c.15,0,.3,0,.45,0,10.81.03,15.03,6.86,15.17,16.95.19,13.96-12.99,24.06-24.13,12.57v18.8c-2.87-.03-5.95.07-8.82.1-.7-14.62-.24-32.59-.24-47.38,2.84-.07,5.99-.23,8.79.07-.19.59-.37,1.04-.6,1.6l.92,1c1.82.2,3.22-2.82,8.45-3.71ZM869.78,85.72c9.95-3.83,8.19-18.47-1.34-19.19-9.37,4.38-9.61,18.86,1.34,19.19Z"/>
  <path class="cls-1" d="M904.16,59.36c6.23-1.15,12.6,1.16,16.63,6.04,4.04,4.88,5.12,11.56,2.83,17.47-2.29,5.9-7.61,10.1-13.88,10.98-9.41,1.31-18.14-5.14-19.66-14.51-1.52-9.38,4.73-18.24,14.08-19.97ZM910.19,85.59c2.39-1.76,3.24-3.21,4.93-5.58l-.04-6.78c-3.43-6.2-3.65-5.79-10.77-5.6-3.14,3.05-4.73,4.72-4.83,9.25-.1,4.96,3.48,8.86,8.44,8.8.76,0,1.51-.03,2.26-.09Z"/>
  <path class="cls-1" d="M972.29,212.58c5.32-.32,14.11,1.43,11.9,8.74-1.57,5.22-6.15,7.45-10.54,9.82,6.36,1.88,10.76,6.01,7.55,13.26-2.16,4.9-6.24,6.63-11.02,8.28-7.17.29-18.46-.57-15.19-11.94,1.19-4.13,6.56-7.56,10.41-9.23-2.66-2.64-3.32-4.07-4.73-7.54,1.83-7.68,4.72-8.45,11.61-11.39ZM969.21,249.61c1.54-1.28,3.34-2.7,4.7-4.14,1.73-6.21,1.26-11.53-6.88-10.91-5.88,5.21-9.22,16.51,2.19,15.05ZM973.59,227.89c4.65-4,8.2-13-1.1-12.23-4.49,3.16-7.45,11.19-.4,12.12.49.06,1,.1,1.5.11Z"/>
  <path class="cls-1" d="M908.84,212.63c2.4-.14,7.74-.17,9.43,1,14.59,10.05-1.56,35.54-15.29,37.91-2.03.35-3.85,1.46-5.87.36l.08-.83,1.21-.91c.09-.03.19-.06.28-.1,6.37-2.25,11.27-8.47,14.12-14.37l-.43-.32c-4.51,2.77-3.98,2.19-9.35,3.25-14.73-4.87-5.36-22.05,5.82-25.98ZM909.8,233.67c5.16-3.72,10.95-17.16,2.3-18.01-.61-.06-1.22-.09-1.83-.09-.93.8-2.7,2.27-3.35,3.27-2.99,4.63-6.73,15.54,2.88,14.82Z"/>
  <path class="cls-1" d="M941.23,212.63c29.32-1.53,7.47,43.04-13.18,39.14l-.14-.66c.97-1.17,2.27-1.54,3.68-2.1,5.78-2.19,10.38-8.95,12.76-14.38-1.75,1.08-4.05,2.58-5.97,3.1-11.26,3.04-13.8-9.05-8.96-16.83,3.08-4.95,6.37-6.87,11.81-8.28ZM939.38,233.63c8.81-2.37,11.03-18.26,2.82-18.2-4.6,2.8-9.72,11.11-6.22,16.72.39.62,2.62,1.49,3.4,1.48Z"/>
  <path class="cls-1" d="M835.11,60.52c3.87.39,5.92.29,9.8.08l.03,32.21c-1.47-.02-3.04-.02-4.5-.07-4.02-.14-3.73.06-4.8-3.47-5.99.26-7.55,11.05-19.97.16-.65-1.64-1.03-3.1-1.5-4.8-.19-7.71-.02-16.11,0-23.87l9.19.09c-.13,6.45.01,13.4.03,19.89.51.96,1.08,1.91,1.58,2.75,1.1,2.46,6.26,3.11,7.86.93,3.65-4.96,2.34-17.91,2.28-23.89Z"/>
  <path class="cls-1" d="M806.5,59.52c1.25-.02,1.94-.16,2.88.63.89,1.87.51,5.97.5,8.38-.95-.03-1.9-.05-2.85-.06-12.55-.13-8.9,15.25-8.93,24.48-1.91-.01-7.67.28-8.82-.71l-.09-31.64c1.55-.18,6.75-1.01,7.79-.41.2,1.11.43,2.21.68,3.31,2.67.33,2.01-3.28,8.83-3.97Z"/>
  <path class="cls-1" d="M891.55,212.95c.63.06,1.42.47,2.03.73-4.05,12.46-5.72,24.19-10.6,37.44-1.46.79-5.42,1.65-7.08,1.24-.76-1.3-.49-1.05-.09-2.88.94-4.25,6.93-24.71,6.55-27.58-2.44-.87-3.87,1.32-6.01.57-.59-3.36,12.26-8.69,15.2-9.53Z"/>
</svg>
